<svg viewBox="0 0 32 32" fill="none" xmlns="http://www.w3.org/2000/svg">
  <!-- Background Circle -->
  <circle cx="16" cy="16" r="15" fill="url(#gradient1)" />
  
  <!-- Heart Symbol -->
  <path
    d="M16 24C16 24 12 20 12 16C12 13.7909 13.7909 12 16 12C18.2091 12 20 13.7909 20 16C20 20 16 24 16 24Z"
    fill="white"
    fillOpacity="0.9"
  />
  
  <!-- Cross Symbol -->
  <path
    d="M14.5 13.5H17.5V18.5H14.5V13.5ZM13 15V17H19V15H13Z"
    fill="white"
    fillOpacity="0.9"
  />
  
  <!-- Connection Lines -->
  <path
    d="M5 11L10 11M22 11L27 11M5 21L10 21M22 21L27 21"
    stroke="white"
    strokeWidth="1.5"
    strokeLinecap="round"
    strokeOpacity="0.7"
  />
  
  <!-- Dots representing connection -->
  <circle cx="10" cy="11" r="1.5" fill="white" fillOpacity="0.8" />
  <circle cx="22" cy="11" r="1.5" fill="white" fillOpacity="0.8" />
  <circle cx="10" cy="21" r="1.5" fill="white" fillOpacity="0.8" />
  <circle cx="22" cy="21" r="1.5" fill="white" fillOpacity="0.8" />
  
  <!-- Gradients -->
  <defs>
    <linearGradient id="gradient1" x1="0%" y1="0%" x2="100%" y2="100%">
      <stop offset="0%" stopColor="#3B82F6" />
      <stop offset="100%" stopColor="#10B981" />
    </linearGradient>
  </defs>
</svg> 